<svg width="32" height="32" viewBox="0 0 32 32" fill="none" xmlns="http://www.w3.org/2000/svg">
<rect width="32" height="32" rx="8" fill="black" fill-opacity="0.04"/>
<path d="M19.3335 9.33334H12.6668C10.8259 9.33334 9.3335 10.8257 9.3335 12.6667V19.3333C9.3335 21.1743 10.8259 22.6667 12.6668 22.6667H19.3335C21.1744 22.6667 22.6668 21.1743 22.6668 19.3333V12.6667C22.6668 10.8257 21.1744 9.33334 19.3335 9.33334Z" stroke="#EF233C" stroke-linecap="round" stroke-linejoin="round"/>
<path d="M18.6668 15.58C18.7491 16.1348 18.6543 16.7015 18.396 17.1993C18.1376 17.6972 17.7289 18.1009 17.2279 18.3531C16.7269 18.6053 16.1591 18.693 15.6053 18.6039C15.0515 18.5148 14.54 18.2534 14.1434 17.8568C13.7467 17.4601 13.4853 16.9486 13.3962 16.3948C13.3071 15.841 13.3948 15.2732 13.647 14.7722C13.8992 14.2712 14.3029 13.8625 14.8008 13.6041C15.2987 13.3458 15.8653 13.251 16.4201 13.3333C16.9861 13.4172 17.51 13.681 17.9146 14.0855C18.3192 14.4901 18.5829 15.014 18.6668 15.58Z" stroke="#EF233C" stroke-linecap="round" stroke-linejoin="round"/>
<path d="M19.6665 12.3333H19.6765" stroke="#EF233C" stroke-linecap="round" stroke-linejoin="round"/>
</svg>
